<svg xmlns="http://www.w3.org/2000/svg" xmlns:xlink="http://www.w3.org/1999/xlink" width="500" zoomAndPan="magnify" viewBox="0 0 375 374.999991" height="500" preserveAspectRatio="xMidYMid meet" version="1.0"><defs><g/><clipPath id="69e889d169"><path d="M 21.617188 83.605469 L 110.117188 83.605469 L 110.117188 205.855469 L 21.617188 205.855469 Z M 21.617188 83.605469 " clip-rule="nonzero"/></clipPath><clipPath id="6b0ca66f6c"><path d="M 21.617188 214.261719 L 353.117188 214.261719 L 353.117188 291 L 21.617188 291 Z M 21.617188 214.261719 " clip-rule="nonzero"/></clipPath></defs><rect x="-37.5" width="450" fill="#ffffff" y="-37.499999" height="449.999989" fill-opacity="1"/><rect x="-37.5" width="450" fill="#ffffff" y="-37.499999" height="449.999989" fill-opacity="1"/><g clip-path="url(#69e889d169)"><path fill="#1b1f24" d="M 21.617188 83.605469 L 110.445312 83.605469 L 110.445312 111.242188 L 49.25 111.242188 L 49.25 128.628906 L 99.433594 128.628906 L 99.433594 156.261719 L 49.25 156.261719 L 49.25 178.203125 L 110.445312 178.203125 L 110.445312 205.839844 L 21.617188 205.839844 L 21.617188 173.292969 L 49.25 156.261719 L 49.25 128.628906 L 21.617188 145.835938 Z M 21.617188 83.605469 " fill-opacity="1" fill-rule="evenodd"/></g><g fill="#1b1f24" fill-opacity="1"><g transform="translate(108.919816, 206.096038)"><g><path d="M 41.59375 -84.9375 C 55.382812 -84.9375 65.910156 -81.375 73.171875 -74.25 C 80.429688 -67.125 84.0625 -56.53125 84.0625 -42.46875 C 84.0625 -28.445312 80.429688 -17.863281 73.171875 -10.71875 C 65.910156 -3.570312 55.382812 0 41.59375 0 L 11.03125 0 L 11.03125 -84.9375 Z M 40.609375 -14.125 C 49.359375 -14.125 55.898438 -16.359375 60.234375 -20.828125 C 64.578125 -25.296875 66.75 -32.507812 66.75 -42.46875 C 66.75 -52.425781 64.578125 -59.640625 60.234375 -64.109375 C 55.898438 -68.585938 49.359375 -70.828125 40.609375 -70.828125 L 27.828125 -70.828125 L 27.828125 -14.125 Z M 40.609375 -14.125 "/></g></g></g><g fill="#1b1f24" fill-opacity="1"><g transform="translate(199.714809, 206.096038)"><g><path d="M 27.828125 -37.296875 L 27.828125 -14.0625 L 68.375 -14.0625 L 68.375 0 L 11.03125 0 L 11.03125 -84.9375 L 67.453125 -84.9375 L 67.453125 -70.875 L 27.828125 -70.875 L 27.828125 -51.015625 L 62.453125 -51.015625 L 62.453125 -37.296875 Z M 27.828125 -37.296875 "/></g></g></g><g fill="#1b1f24" fill-opacity="1"><g transform="translate(272.734198, 206.096038)"><g><path d="M 50.484375 0 L 30.203125 0 L 1.515625 -84.9375 L 19.34375 -84.9375 L 39.96875 -21.609375 L 41.421875 -21.609375 L 61.765625 -84.9375 L 79.125 -84.9375 Z M 50.484375 0 "/></g></g></g><g clip-path="url(#6b0ca66f6c)"><path fill="#5271ff" d="M 41.113281 214.75 C 40.316406 214.871094 39.535156 215.003906 38.78125 215.253906 C 37.839844 215.566406 36.921875 215.917969 36.003906 216.289062 C 34.695312 216.824219 33.417969 217.375 32.195312 218.085938 C 30.664062 218.972656 29.304688 220.226562 28.121094 221.535156 C 26.695312 223.109375 25.480469 224.816406 24.644531 226.769531 C 23.828125 228.679688 22.988281 230.582031 22.46875 232.605469 C 22.074219 234.164062 21.902344 235.789062 21.742188 237.378906 C 21.609375 238.679688 21.601562 239.992188 21.636719 241.296875 C 21.707031 244.503906 22.265625 247.703125 23.234375 250.75 C 23.703125 252.230469 24.320312 253.675781 24.9375 255.085938 C 25.433594 256.234375 25.972656 257.347656 26.5625 258.441406 C 28.027344 261.179688 29.929688 263.671875 31.953125 266.019531 C 34.730469 269.242188 38.171875 271.746094 41.589844 274.234375 C 45.734375 277.257812 50.382812 279.433594 55.101562 281.382812 C 57.484375 282.363281 59.941406 283.132812 62.375 283.960938 C 63.078125 284.199219 63.820312 284.359375 64.535156 284.550781 C 65.761719 284.875 66.988281 285.207031 68.210938 285.53125 C 68.945312 285.730469 69.707031 285.847656 70.457031 286.007812 C 71.738281 286.273438 73.015625 286.539062 74.289062 286.804688 C 75 286.949219 75.734375 287.023438 76.449219 287.128906 C 77.761719 287.320312 79.078125 287.511719 80.390625 287.710938 C 84.898438 288.375 89.457031 288.546875 94.007812 288.714844 C 96.0625 288.785156 98.136719 288.679688 100.199219 288.640625 C 102.148438 288.609375 104.097656 288.441406 106.046875 288.308594 C 106.800781 288.261719 107.570312 288.25 108.320312 288.15625 C 109.441406 288.015625 110.5625 287.878906 111.683594 287.746094 C 113.957031 287.46875 116.230469 287.222656 118.484375 286.796875 C 120.464844 286.425781 122.480469 286.132812 124.449219 285.664062 C 126.746094 285.113281 129.039062 284.558594 131.332031 284.007812 C 133.433594 283.503906 135.507812 282.828125 137.589844 282.230469 C 139.382812 281.71875 141.160156 281.148438 142.933594 280.59375 C 146.667969 279.425781 150.394531 278.21875 154.058594 276.867188 C 158.21875 275.328125 162.355469 273.78125 166.476562 272.152344 C 170.496094 270.566406 174.507812 268.949219 178.492188 267.273438 C 182.261719 265.679688 186.042969 264.105469 189.792969 262.445312 C 193.867188 260.648438 197.917969 258.8125 201.972656 256.96875 C 205.261719 255.476562 208.492188 253.832031 211.746094 252.261719 C 215.902344 250.261719 220.066406 248.257812 224.230469 246.261719 C 227.273438 244.804688 230.371094 243.464844 233.453125 242.09375 C 236.980469 240.667969 240.507812 239.234375 244.058594 237.882812 C 245.757812 237.234375 247.449219 236.570312 249.171875 235.980469 C 251.328125 235.242188 253.480469 234.507812 255.636719 233.773438 C 256.410156 233.507812 257.21875 233.328125 258.007812 233.101562 C 259.414062 232.703125 260.820312 232.3125 262.21875 231.914062 C 264.042969 231.40625 265.898438 231 267.742188 230.554688 C 271.414062 229.679688 275.128906 228.914062 278.859375 228.316406 C 280.40625 228.0625 281.949219 227.820312 283.496094 227.566406 C 286.085938 227.25 288.679688 226.929688 291.285156 226.710938 C 293.140625 226.566406 294.992188 226.386719 296.855469 226.300781 C 300.851562 226.113281 304.84375 226.246094 308.8125 226.75 C 313.375 227.433594 317.851562 228.585938 322.132812 230.304688 C 325.621094 231.816406 328.910156 233.644531 331.972656 235.898438 C 333.949219 237.4375 335.871094 239.117188 337.515625 241.011719 C 338.257812 241.859375 339 242.714844 339.734375 243.570312 C 340.371094 244.414062 341 245.253906 341.636719 246.089844 C 342.355469 247.046875 342.957031 248.117188 343.613281 249.121094 C 343.90625 249.570312 344.144531 250.074219 344.410156 250.550781 C 344.679688 251.042969 344.984375 251.519531 345.226562 252.023438 C 345.855469 253.324219 346.484375 254.621094 347.0625 255.949219 C 348.0625 258.433594 348.773438 260.972656 349.144531 263.621094 C 349.394531 265.972656 349.375 268.300781 349.082031 270.652344 C 348.765625 272.636719 348.242188 274.539062 347.492188 276.402344 C 346.644531 278.277344 345.609375 280.015625 344.394531 281.671875 C 343.320312 283.03125 342.140625 284.265625 340.78125 285.359375 C 339.847656 286.027344 338.886719 286.59375 337.847656 287.0625 C 337.109375 287.320312 336.386719 287.519531 335.625 287.644531 C 335.066406 287.671875 334.523438 287.671875 333.96875 287.632812 C 332.269531 287.335938 330.605469 286.765625 328.957031 286.285156 C 328.121094 286.042969 327.21875 286.578125 326.992188 287.40625 C 326.761719 288.257812 327.277344 289.132812 328.113281 289.371094 C 329.367188 289.734375 330.621094 290.097656 331.878906 290.457031 C 334.320312 291.160156 336.890625 290.933594 339.21875 289.953125 C 344 287.945312 347.511719 283.734375 349.933594 279.265625 C 352.410156 274.683594 353.347656 269.347656 353.0625 264.183594 C 352.929688 261.777344 352.476562 259.390625 351.828125 257.082031 C 351.296875 255.207031 350.535156 253.417969 349.765625 251.632812 C 349.015625 249.902344 348.269531 248.144531 347.308594 246.527344 C 346.757812 245.601562 346.207031 244.671875 345.65625 243.742188 C 345.074219 242.761719 344.34375 241.832031 343.699219 240.890625 C 343.117188 240.039062 342.421875 239.242188 341.777344 238.433594 C 340.558594 236.894531 339.25 235.4375 337.847656 234.058594 C 333.863281 230.160156 329.089844 227.128906 324.03125 224.828125 C 314.832031 220.636719 304.503906 219.085938 294.460938 219.5625 C 292.4375 219.65625 290.410156 219.710938 288.386719 219.890625 C 286.339844 220.0625 284.277344 220.179688 282.234375 220.4375 C 279.875 220.738281 277.480469 220.957031 275.132812 221.347656 C 272.875 221.71875 270.605469 222.089844 268.34375 222.460938 C 266.25 222.804688 264.160156 223.316406 262.078125 223.742188 C 260.242188 224.117188 258.425781 224.609375 256.605469 225.058594 C 254.898438 225.484375 253.222656 225.921875 251.546875 226.4375 C 249.597656 227.035156 247.621094 227.578125 245.699219 228.25 C 241.535156 229.695312 237.390625 231.167969 233.261719 232.710938 C 225.515625 235.609375 217.992188 239.03125 210.472656 242.457031 C 205.878906 244.550781 201.3125 246.738281 196.671875 248.742188 C 191.957031 250.769531 187.234375 252.78125 182.5 254.761719 C 174.699219 257.878906 166.875 260.902344 159.011719 263.84375 C 155.398438 265.199219 151.726562 266.410156 148.058594 267.605469 C 146.257812 268.1875 144.460938 268.804688 142.644531 269.335938 C 140.429688 269.984375 138.214844 270.640625 136 271.289062 C 133.953125 271.894531 131.863281 272.390625 129.800781 272.941406 C 128.238281 273.359375 126.660156 273.695312 125.082031 274.054688 C 123.476562 274.417969 121.871094 274.8125 120.242188 275.089844 C 118.3125 275.421875 116.375 275.753906 114.445312 276.082031 C 113.3125 276.210938 112.179688 276.335938 111.050781 276.453125 C 109.984375 276.574219 108.917969 276.71875 107.851562 276.78125 C 105.011719 276.933594 102.1875 277.125 99.34375 277.136719 C 97.804688 277.152344 96.265625 277.15625 94.730469 277.164062 C 93.203125 277.175781 91.667969 277.023438 90.140625 276.953125 C 87.636719 276.832031 85.140625 276.5625 82.644531 276.316406 C 80.933594 276.050781 79.222656 275.792969 77.511719 275.527344 C 76.429688 275.359375 75.355469 275.074219 74.289062 274.84375 C 73.328125 274.644531 72.347656 274.492188 71.398438 274.234375 C 70.265625 273.929688 69.125 273.625 67.992188 273.3125 C 67.164062 273.085938 66.300781 272.90625 65.484375 272.628906 C 63.070312 271.800781 60.644531 271.003906 58.273438 270.0625 C 54.949219 268.617188 51.769531 266.929688 48.726562 264.945312 C 47.589844 264.210938 46.511719 263.394531 45.429688 262.59375 C 43.195312 260.78125 41.128906 258.820312 39.285156 256.605469 C 37.640625 254.363281 36.273438 251.976562 35.140625 249.445312 C 34.378906 247.460938 33.769531 245.441406 33.410156 243.351562 C 33.210938 241.164062 33.191406 238.984375 33.410156 236.796875 C 33.660156 235.417969 34.027344 234.089844 34.503906 232.765625 C 34.589844 232.527344 34.683594 232.285156 34.78125 232.054688 C 35.160156 231.199219 35.570312 230.402344 36.089844 229.636719 C 36.625 228.992188 37.183594 228.367188 37.796875 227.796875 C 38.699219 227.203125 39.660156 226.71875 40.644531 226.273438 C 41.523438 225.941406 42.414062 225.65625 43.339844 225.464844 C 43.707031 225.453125 44.0625 225.453125 44.429688 225.472656 C 45.46875 225.703125 46.46875 226.035156 47.464844 226.40625 C 48.480469 226.921875 49.453125 227.488281 50.390625 228.125 C 51.023438 228.671875 51.609375 229.25 52.160156 229.878906 C 52.464844 230.332031 52.75 230.796875 53 231.273438 C 53.035156 231.371094 53.0625 231.476562 53.085938 231.585938 C 53.066406 231.671875 53.039062 231.75 53.019531 231.835938 C 52.929688 232.015625 52.820312 232.195312 52.714844 232.375 C 52.6875 232.40625 52.65625 232.433594 52.625 232.464844 C 52.273438 232.679688 51.914062 232.871094 51.554688 233.082031 C 48.84375 234.6875 47.890625 238.265625 49.492188 241.003906 C 51.085938 243.722656 54.699219 244.65625 57.417969 243.066406 C 59.683594 241.742188 61.566406 239.71875 62.78125 237.390625 C 63.410156 236.183594 63.902344 234.914062 64.097656 233.566406 C 64.226562 232.722656 64.339844 232.054688 64.296875 231.246094 C 64.265625 230.445312 64.113281 229.628906 63.960938 228.839844 C 63.773438 227.871094 63.277344 226.941406 62.894531 226.054688 C 62.554688 225.292969 62.082031 224.597656 61.585938 223.933594 C 60.785156 222.847656 59.941406 221.773438 58.949219 220.84375 C 57.34375 219.34375 55.460938 218.171875 53.539062 217.132812 C 52.429688 216.535156 51.230469 216.097656 50.050781 215.679688 C 49.601562 215.519531 49.140625 215.375 48.683594 215.226562 C 47.417969 214.835938 46.125 214.679688 44.820312 214.511719 C 44.496094 214.492188 44.183594 214.472656 43.863281 214.472656 C 42.945312 214.472656 42.007812 214.617188 41.113281 214.75 Z M 331.5625 235.59375 C 331.628906 235.640625 331.6875 235.695312 331.753906 235.742188 C 331.6875 235.695312 331.628906 235.648438 331.5625 235.59375 Z M 344.65625 281.347656 C 344.570312 281.453125 344.488281 281.566406 344.402344 281.671875 C 344.488281 281.566406 344.570312 281.453125 344.65625 281.347656 Z M 344.65625 281.347656 " fill-opacity="1" fill-rule="nonzero"/></g></svg>