<svg width="91" height="79" viewBox="0 0 91 79" fill="none" xmlns="http://www.w3.org/2000/svg">
<mask id="path-1-inside-1_11_570" fill="white">
<path d="M0 0H91V78H0V0Z"/>
</mask>
<path d="M90 0V78H92V0H90Z" fill="#BBBBBA" fill-opacity="0.44" mask="url(#path-1-inside-1_11_570)"/>
<path d="M47.907 72.3863L47.907 75.2283L50 75.7393L50 78.1403L40.298 75.1723L40.298 72.3863L50 69.4183L50 71.8753L47.907 72.3863ZM46.241 74.8643L46.241 72.7643L41.95 73.8143L46.241 74.8643ZM47.067 62.9638C46.7263 62.9638 46.458 63.0315 46.262 63.1668C46.0613 63.2975 45.919 63.4841 45.835 63.7268C45.751 63.9648 45.709 64.2448 45.709 64.5668L45.709 65.5118L48.327 65.5118L48.327 64.6648C48.327 64.4408 48.3107 64.2285 48.278 64.0278C48.2453 63.8225 48.1847 63.6405 48.096 63.4818C48.0073 63.3185 47.8813 63.1925 47.718 63.1038C47.55 63.0105 47.333 62.9638 47.067 62.9638ZM43.007 63.3278C42.6243 63.3278 42.349 63.4491 42.181 63.6918C42.0083 63.9298 41.922 64.3008 41.922 64.8048L41.922 65.5118L44.169 65.5118L44.169 64.7348C44.169 64.2401 44.078 63.8831 43.896 63.6638C43.714 63.4398 43.4177 63.3278 43.007 63.3278ZM47.158 60.5978C47.718 60.5978 48.1823 60.7051 48.551 60.9198C48.9197 61.1345 49.209 61.4285 49.419 61.8018C49.629 62.1751 49.7783 62.6021 49.867 63.0828C49.9557 63.5588 50 64.0605 50 64.5878L50 67.8078L40.298 67.8078L40.298 64.7348C40.298 64.2355 40.34 63.7641 40.424 63.3208C40.5033 62.8728 40.6387 62.4761 40.83 62.1308C41.0167 61.7855 41.271 61.5148 41.593 61.3188C41.9103 61.1181 42.3047 61.0178 42.776 61.0178C43.1633 61.0178 43.4993 61.0995 43.784 61.2628C44.064 61.4261 44.295 61.6431 44.477 61.9138C44.6543 62.1845 44.7827 62.4785 44.862 62.7958C44.918 62.4505 45.0277 62.1098 45.191 61.7738C45.3497 61.4331 45.5877 61.1531 45.905 60.9338C46.2223 60.7098 46.64 60.5978 47.158 60.5978ZM45.142 51.1123C46.1687 51.1123 47.0647 51.2593 47.83 51.5533C48.5907 51.8473 49.1833 52.2836 49.608 52.8623C50.028 53.4363 50.238 54.1479 50.238 54.9973C50.238 55.8419 50.0327 56.5536 49.622 57.1323C49.2067 57.7109 48.6187 58.1473 47.858 58.4413C47.0973 58.7353 46.192 58.8823 45.142 58.8823C44.1153 58.8823 43.2217 58.7353 42.461 58.4413C41.7003 58.1473 41.11 57.7109 40.69 57.1323C40.2653 56.5536 40.053 55.8419 40.053 54.9973C40.053 54.1479 40.2583 53.4363 40.669 52.8623C41.0797 52.2836 41.6653 51.8473 42.426 51.5533C43.1867 51.2593 44.092 51.1123 45.142 51.1123ZM45.142 53.4643C43.9473 53.4643 43.0793 53.5833 42.538 53.8213C41.9967 54.0593 41.726 54.4513 41.726 54.9973C41.726 55.5433 41.999 55.9353 42.545 56.1733C43.0863 56.4113 43.952 56.5303 45.142 56.5303C46.3367 56.5303 47.2047 56.4089 47.746 56.1663C48.2873 55.9236 48.558 55.5339 48.558 54.9973C48.558 54.4373 48.285 54.0429 47.739 53.8143C47.1883 53.5809 46.3227 53.4643 45.142 53.4643ZM40.298 41.9907L46.752 41.9907C47.4147 41.9907 48.0097 42.1261 48.537 42.3967C49.0597 42.6627 49.475 43.0641 49.783 43.6007C50.0863 44.1327 50.238 44.8001 50.238 45.6027C50.238 46.4101 50.091 47.0821 49.797 47.6187C49.503 48.1507 49.0947 48.5497 48.572 48.8157C48.0493 49.0817 47.4427 49.2147 46.752 49.2147L40.298 49.2147L40.298 46.9117L45.898 46.9117C46.7707 46.9117 47.4287 46.8324 47.872 46.6737C48.3107 46.5151 48.53 46.1581 48.53 45.6027C48.53 45.0474 48.3107 44.6904 47.872 44.5317C47.4287 44.3731 46.7707 44.2937 45.898 44.2937L40.298 44.2937L40.298 41.9907ZM42.055 35.0742L50 35.0742L50 37.3702L42.055 37.3702L42.055 40.0932L40.298 40.0932L40.298 32.2392L42.055 32.4772L42.055 35.0742Z" fill="#14C685"/>
</svg>
