<svg width="27" height="28" viewBox="0 0 27 28" fill="none" xmlns="http://www.w3.org/2000/svg">
<g clip-path="url(#clip0_35_952)">
<path d="M13.5 0.5C8.26601 0.5 4.00781 4.7582 4.00781 9.99219C4.00781 11.7606 4.49766 13.4864 5.42473 14.9836L12.9597 27.1261C13.104 27.3587 13.3583 27.5 13.6318 27.5C13.6339 27.5 13.636 27.5 13.6381 27.5C13.9139 27.4978 14.1687 27.3521 14.3104 27.1155L21.6533 14.8554C22.5292 13.3898 22.9922 11.7081 22.9922 9.99219C22.9922 4.7582 18.734 0.5 13.5 0.5ZM20.2957 14.0431L13.6198 25.1895L6.76935 14.1501C5.99769 12.9039 5.5793 11.4661 5.5793 9.99219C5.5793 5.63053 9.13834 2.07148 13.5 2.07148C17.8617 2.07148 21.4154 5.63053 21.4154 9.99219C21.4154 11.4224 21.0246 12.8234 20.2957 14.0431Z" fill="white"/>
<path d="M13.5 5.24609C10.883 5.24609 8.75391 7.37519 8.75391 9.99219C8.75391 12.5925 10.8484 14.7383 13.5 14.7383C16.1843 14.7383 18.2461 12.5639 18.2461 9.99219C18.2461 7.37519 16.117 5.24609 13.5 5.24609ZM13.5 13.1668C11.7462 13.1668 10.3254 11.7412 10.3254 9.99219C10.3254 8.24752 11.7553 6.81758 13.5 6.81758C15.2447 6.81758 16.6693 8.24752 16.6693 9.99219C16.6693 11.7157 15.2816 13.1668 13.5 13.1668Z" fill="white"/>
</g>
<defs>
<clipPath id="clip0_35_952">
<rect width="27" height="27" fill="white" transform="translate(0 0.5)"/>
</clipPath>
</defs>
</svg>
