<svg width="22" height="22" viewBox="0 0 22 22" fill="none" xmlns="http://www.w3.org/2000/svg">
<path d="M19.9978 15.0987V17.7502C19.9988 17.9964 19.9484 18.24 19.8498 18.4655C19.7512 18.6911 19.6065 18.8935 19.4251 19.0599C19.2438 19.2263 19.0296 19.353 18.7964 19.4319C18.5633 19.5108 18.3162 19.54 18.071 19.5179C15.3513 19.2224 12.7388 18.293 10.4435 16.8045C8.308 15.4475 6.49747 13.637 5.14048 11.5015C3.64677 9.19572 2.71721 6.57054 2.4271 3.8386C2.40501 3.59419 2.43406 3.34785 2.51239 3.11528C2.59072 2.88272 2.71662 2.669 2.88207 2.48776C3.04752 2.30651 3.24889 2.1617 3.47338 2.06254C3.69786 1.96339 3.94053 1.91206 4.18593 1.91183H6.83745C7.26638 1.90761 7.68222 2.0595 8.00744 2.33919C8.33267 2.61889 8.54509 3.0073 8.60513 3.43203C8.71704 4.28057 8.92459 5.11373 9.22381 5.91562C9.34273 6.23196 9.36846 6.57577 9.29797 6.90629C9.22748 7.23682 9.06372 7.54021 8.82609 7.78052L7.70361 8.90299C8.9618 11.1157 10.7939 12.9478 13.0066 14.206L14.1291 13.0835C14.3694 12.8459 14.6728 12.6821 15.0033 12.6117C15.3339 12.5412 15.6777 12.5669 15.994 12.6858C16.7959 12.985 17.6291 13.1926 18.4776 13.3045C18.9069 13.3651 19.299 13.5813 19.5793 13.9121C19.8596 14.243 20.0086 14.6652 19.9978 15.0987Z" stroke="#4B5563" stroke-width="1.32576" stroke-linecap="round" stroke-linejoin="round"/>
</svg>
