<svg width="34" height="25" viewBox="0 0 34 25" fill="none" xmlns="http://www.w3.org/2000/svg">
<path d="M25.95 20.0297C25.95 20.3897 25.87 20.7597 25.7 21.1197C25.53 21.4797 25.31 21.8197 25.02 22.1397C24.53 22.6797 23.99 23.0697 23.38 23.3197C22.78 23.5697 22.13 23.6997 21.43 23.6997C20.41 23.6997 19.32 23.4597 18.17 22.9697C17.02 22.4797 15.87 21.8197 14.73 20.9897C13.58 20.1497 12.49 19.2197 11.45 18.1897C10.42 17.1497 9.48998 16.0597 8.65998 14.9197C7.83998 13.7797 7.17998 12.6397 6.69998 11.5097C6.21998 10.3697 5.97998 9.27971 5.97998 8.23971C5.97998 7.55971 6.09998 6.90971 6.33998 6.30971C6.57998 5.69971 6.95998 5.13971 7.48998 4.63971C8.12998 4.00971 8.82998 3.69971 9.56998 3.69971C9.84998 3.69971 10.13 3.75971 10.38 3.87971C10.64 3.99971 10.87 4.17971 11.05 4.43971L13.37 7.70971C13.55 7.95971 13.68 8.18971 13.77 8.40971C13.86 8.61971 13.91 8.82971 13.91 9.01971C13.91 9.25971 13.84 9.49971 13.7 9.72971C13.57 9.95971 13.38 10.1997 13.14 10.4397L12.38 11.2297C12.27 11.3397 12.22 11.4697 12.22 11.6297C12.22 11.7097 12.23 11.7797 12.25 11.8597C12.28 11.9397 12.31 11.9997 12.33 12.0597C12.51 12.3897 12.82 12.8197 13.26 13.3397C13.71 13.8597 14.19 14.3897 14.71 14.9197C15.25 15.4497 15.77 15.9397 16.3 16.3897C16.82 16.8297 17.25 17.1297 17.59 17.3097C17.64 17.3297 17.7 17.3597 17.77 17.3897C17.85 17.4197 17.93 17.4297 18.02 17.4297C18.19 17.4297 18.32 17.3697 18.43 17.2597L19.19 16.5097C19.44 16.2597 19.68 16.0697 19.91 15.9497C20.14 15.8097 20.37 15.7397 20.62 15.7397C20.81 15.7397 21.01 15.7797 21.23 15.8697C21.45 15.9597 21.68 16.0897 21.93 16.2597L25.24 18.6097C25.5 18.7897 25.68 18.9997 25.79 19.2497C25.89 19.4997 25.95 19.7497 25.95 20.0297Z" stroke="white" stroke-width="1.41291" stroke-miterlimit="10"/>
<path d="M22.48 10.6997C22.48 10.0997 22.01 9.17971 21.31 8.42971C20.67 7.73971 19.82 7.19971 18.98 7.19971" stroke="white" stroke-width="1.41291" stroke-linecap="round" stroke-linejoin="round"/>
<path d="M25.98 10.6997C25.98 6.82971 22.85 3.69971 18.98 3.69971" stroke="white" stroke-width="1.41291" stroke-linecap="round" stroke-linejoin="round"/>
</svg>
