<svg width="91" height="107" viewBox="0 0 91 107" fill="none" xmlns="http://www.w3.org/2000/svg">
<mask id="path-1-inside-1_11_568" fill="white">
<path d="M0 0H91V107H0V0Z"/>
</mask>
<path d="M90 0V107H92V0H90Z" fill="#BBBBBA" fill-opacity="0.44" mask="url(#path-1-inside-1_11_568)"/>
<path d="M43.462 100.873C43.1167 100.873 42.832 100.938 42.608 101.069C42.3793 101.195 42.2113 101.389 42.104 101.65C41.992 101.907 41.936 102.231 41.936 102.623L41.936 103.407L45.107 103.407L45.107 102.504C45.107 102.163 45.0487 101.872 44.932 101.629C44.8153 101.386 44.6357 101.2 44.393 101.069C44.1503 100.938 43.84 100.873 43.462 100.873ZM43.455 98.5071C44.2063 98.5071 44.827 98.6681 45.317 98.9901C45.807 99.3121 46.1733 99.7625 46.416 100.341C46.654 100.92 46.773 101.592 46.773 102.357L46.773 103.407L50 103.407L50 105.703L40.298 105.703L40.298 102.651C40.298 101.335 40.5593 100.315 41.082 99.5921C41.6047 98.8688 42.3957 98.5071 43.455 98.5071ZM43.245 89.3226C43.707 89.3226 44.1107 89.4089 44.456 89.5816C44.8013 89.7543 45.093 89.9876 45.331 90.2816C45.569 90.5756 45.7603 90.9046 45.905 91.2686L50 88.7276L50 91.3246L46.29 93.4246L46.29 94.0756L50 94.0756L50 96.3716L40.298 96.3716L40.298 93.3196C40.298 91.9989 40.5383 91.0026 41.019 90.3306C41.4997 89.6586 42.2417 89.3226 43.245 89.3226ZM43.245 91.6886C42.7783 91.6886 42.44 91.8263 42.23 92.1016C42.0153 92.3723 41.908 92.7759 41.908 93.3126L41.908 94.0756L44.715 94.0756L44.715 93.2216C44.715 92.7223 44.5983 92.3419 44.365 92.0806C44.1317 91.8193 43.7583 91.6886 43.245 91.6886ZM45.142 79.7041C46.1687 79.7041 47.0647 79.8511 47.83 80.1451C48.5907 80.4391 49.1833 80.8754 49.608 81.4541C50.028 82.0281 50.238 82.7397 50.238 83.5891C50.238 84.4337 50.0327 85.1454 49.622 85.7241C49.2067 86.3027 48.6187 86.7391 47.858 87.0331C47.0973 87.3271 46.192 87.4741 45.142 87.4741C44.1153 87.4741 43.2217 87.3271 42.461 87.0331C41.7003 86.7391 41.11 86.3027 40.69 85.7241C40.2653 85.1454 40.053 84.4337 40.053 83.5891C40.053 82.7397 40.2583 82.0281 40.669 81.4541C41.0797 80.8754 41.6653 80.4391 42.426 80.1451C43.1867 79.8511 44.092 79.7041 45.142 79.7041ZM45.142 82.0561C43.9473 82.0561 43.0793 82.1751 42.538 82.4131C41.9967 82.6511 41.726 83.0431 41.726 83.5891C41.726 84.1351 41.999 84.5271 42.545 84.7651C43.0863 85.0031 43.952 85.1221 45.142 85.1221C46.3367 85.1221 47.2047 85.0007 47.746 84.7581C48.2873 84.5154 48.558 84.1257 48.558 83.5891C48.558 83.0291 48.285 82.6347 47.739 82.4061C47.1883 82.1727 46.3227 82.0561 45.142 82.0561ZM40.298 71.0165L46.507 71.0165C47.0717 71.0165 47.5827 71.1029 48.04 71.2755C48.4973 71.4482 48.887 71.7025 49.209 72.0385C49.531 72.3699 49.7783 72.7782 49.951 73.2635C50.1237 73.7442 50.21 74.2949 50.21 74.9155C50.21 75.5409 50.1307 76.0822 49.972 76.5395C49.8087 76.9922 49.5847 77.4285 49.3 77.8485L47.886 76.9735C48.1147 76.6422 48.2757 76.3319 48.369 76.0425C48.4577 75.7532 48.502 75.4242 48.502 75.0555C48.502 74.5562 48.3433 74.1409 48.026 73.8095C47.704 73.4735 47.207 73.3055 46.535 73.3055L41.978 73.3055L41.978 76.2875L40.298 76.2875L40.298 71.0165ZM41.936 65.402L44.267 65.402L44.267 62.042L45.877 62.042L45.877 65.402L48.355 65.402L48.355 61.349L50 61.349L50 67.698L40.298 67.698L40.298 61.356L41.936 61.587L41.936 65.402ZM40.053 54.5935C40.053 53.8981 40.1463 53.3078 40.333 52.8225C40.515 52.3325 40.774 51.8845 41.11 51.4785L42.468 52.6055C42.2487 52.8715 42.076 53.1655 41.95 53.4875C41.8193 53.8095 41.754 54.1595 41.754 54.5375C41.754 54.9435 41.8707 55.3145 42.104 55.6505C42.3327 55.9865 42.6967 56.2548 43.196 56.4555C43.6907 56.6561 44.3347 56.7565 45.128 56.7565C45.9073 56.7565 46.5443 56.6608 47.039 56.4695C47.529 56.2735 47.8907 56.0051 48.124 55.6645C48.3527 55.3238 48.467 54.9341 48.467 54.4955C48.467 54.0101 48.376 53.6065 48.194 53.2845C48.012 52.9625 47.8137 52.6661 47.599 52.3955L48.929 51.3525C49.2883 51.7165 49.5963 52.1645 49.853 52.6965C50.1097 53.2285 50.238 53.8701 50.238 54.6215C50.238 55.4988 50.0443 56.2781 49.657 56.9595C49.265 57.6361 48.691 58.1681 47.935 58.5555C47.1743 58.9381 46.2387 59.1295 45.128 59.1295C44.0453 59.1295 43.126 58.9311 42.37 58.5345C41.614 58.1331 41.04 57.5895 40.648 56.9035C40.2513 56.2175 40.053 55.4475 40.053 54.5935ZM42.055 44.8769L50 44.8769L50 47.1729L42.055 47.1729L42.055 49.8959L40.298 49.8959L40.298 42.0419L42.055 42.2799L42.055 44.8769ZM47.165 32.8644C47.767 32.8644 48.299 33.0231 48.761 33.3404C49.223 33.6531 49.5847 34.1034 49.846 34.6914C50.1073 35.2794 50.238 35.9864 50.238 36.8124C50.238 37.7271 50.105 38.4947 49.839 39.1154C49.5683 39.7314 49.2347 40.2424 48.838 40.6484L47.55 39.4864C47.8627 39.1271 48.1053 38.7304 48.278 38.2964C48.446 37.8624 48.53 37.3864 48.53 36.8684C48.53 36.5464 48.4833 36.2641 48.39 36.0214C48.2967 35.7787 48.1613 35.5897 47.984 35.4544C47.8067 35.3191 47.592 35.2514 47.34 35.2514C47.102 35.2514 46.9013 35.3051 46.738 35.4124C46.5747 35.5197 46.4277 35.7017 46.297 35.9584C46.1663 36.2104 46.0333 36.5627 45.898 37.0154C45.6647 37.7714 45.408 38.3804 45.128 38.8424C44.848 39.2997 44.5237 39.6334 44.155 39.8434C43.7863 40.0487 43.357 40.1514 42.867 40.1514C42.2743 40.1514 41.768 39.9881 41.348 39.6614C40.928 39.3301 40.6083 38.8867 40.389 38.3314C40.165 37.7761 40.053 37.1647 40.053 36.4974C40.053 35.7461 40.1627 35.0834 40.382 34.5094C40.5967 33.9354 40.9047 33.4384 41.306 33.0184L42.552 34.1034C42.2767 34.4301 42.0737 34.7824 41.943 35.1604C41.8077 35.5384 41.74 35.9234 41.74 36.3154C41.74 36.6047 41.7773 36.8591 41.852 37.0784C41.922 37.2977 42.027 37.4681 42.167 37.5894C42.307 37.7107 42.482 37.7714 42.692 37.7714C42.8973 37.7714 43.07 37.7131 43.21 37.5964C43.35 37.4797 43.483 37.2767 43.609 36.9874C43.7303 36.6981 43.8727 36.2967 44.036 35.7834C44.2227 35.1721 44.4467 34.6494 44.708 34.2154C44.9647 33.7767 45.289 33.4431 45.681 33.2144C46.073 32.9811 46.5677 32.8644 47.165 32.8644Z" fill="#14C685"/>
</svg>
