<svg width="91" height="88" viewBox="0 0 91 88" fill="none" xmlns="http://www.w3.org/2000/svg">
<mask id="path-1-inside-1_11_572" fill="white">
<path d="M0 0H91V88H0V0Z"/>
</mask>
<path d="M90 0V88H92V0H90Z" fill="#BBBBBA" fill-opacity="0.44" mask="url(#path-1-inside-1_11_572)"/>
<path d="M47.165 79.7316C47.767 79.7316 48.299 79.8903 48.761 80.2076C49.223 80.5203 49.5847 80.9706 49.846 81.5586C50.1073 82.1466 50.238 82.8536 50.238 83.6796C50.238 84.5943 50.105 85.3619 49.839 85.9826C49.5683 86.5986 49.2347 87.1096 48.838 87.5156L47.55 86.3536C47.8627 85.9943 48.1053 85.5976 48.278 85.1636C48.446 84.7296 48.53 84.2536 48.53 83.7356C48.53 83.4136 48.4833 83.1313 48.39 82.8886C48.2967 82.6459 48.1613 82.4569 47.984 82.3216C47.8067 82.1863 47.592 82.1186 47.34 82.1186C47.102 82.1186 46.9013 82.1723 46.738 82.2796C46.5747 82.3869 46.4277 82.5689 46.297 82.8256C46.1663 83.0776 46.0333 83.4299 45.898 83.8826C45.6647 84.6386 45.408 85.2476 45.128 85.7096C44.848 86.1669 44.5237 86.5006 44.155 86.7106C43.7863 86.9159 43.357 87.0186 42.867 87.0186C42.2743 87.0186 41.768 86.8553 41.348 86.5286C40.928 86.1973 40.6083 85.7539 40.389 85.1986C40.165 84.6433 40.053 84.0319 40.053 83.3646C40.053 82.6133 40.1627 81.9506 40.382 81.3766C40.5967 80.8026 40.9047 80.3056 41.306 79.8856L42.552 80.9706C42.2767 81.2973 42.0737 81.6496 41.943 82.0276C41.8077 82.4056 41.74 82.7906 41.74 83.1826C41.74 83.4719 41.7773 83.7263 41.852 83.9456C41.922 84.1649 42.027 84.3353 42.167 84.4566C42.307 84.5779 42.482 84.6386 42.692 84.6386C42.8973 84.6386 43.07 84.5803 43.21 84.4636C43.35 84.3469 43.483 84.1439 43.609 83.8546C43.7303 83.5653 43.8727 83.1639 44.036 82.6506C44.2227 82.0393 44.4467 81.5166 44.708 81.0826C44.9647 80.6439 45.289 80.3103 45.681 80.0816C46.073 79.8483 46.5677 79.7316 47.165 79.7316ZM50 75.1671L50 77.4631L40.298 77.4631L40.298 75.1671L50 75.1671ZM44.82 75.0971L40.298 72.4441L40.298 70.0361L44.652 72.7801L50 69.7701L50 72.4301L44.82 75.0971ZM40.298 61.5445L41.978 61.5445L41.978 63.5465L48.313 63.5465L48.313 61.5445L50 61.5445L50 67.8445L48.313 67.8445L48.313 65.8425L41.978 65.8425L41.978 67.8445L40.298 67.8445L40.298 61.5445ZM50 58.198L40.298 58.198L40.298 55.902L48.187 55.902L48.187 51.695L50 51.933L50 58.198ZM50 48.8035L40.298 48.8035L40.298 46.5075L48.187 46.5075L48.187 42.3005L50 42.5385L50 48.8035ZM47.165 32.7589C47.767 32.7589 48.299 32.9176 48.761 33.2349C49.223 33.5476 49.5847 33.9979 49.846 34.5859C50.1073 35.1739 50.238 35.8809 50.238 36.7069C50.238 37.6216 50.105 38.3893 49.839 39.0099C49.5683 39.6259 49.2347 40.1369 48.838 40.5429L47.55 39.3809C47.8627 39.0216 48.1053 38.6249 48.278 38.1909C48.446 37.7569 48.53 37.2809 48.53 36.7629C48.53 36.4409 48.4833 36.1586 48.39 35.9159C48.2967 35.6733 48.1613 35.4843 47.984 35.3489C47.8067 35.2136 47.592 35.1459 47.34 35.1459C47.102 35.1459 46.9013 35.1996 46.738 35.3069C46.5747 35.4143 46.4277 35.5963 46.297 35.8529C46.1663 36.1049 46.0333 36.4573 45.898 36.9099C45.6647 37.6659 45.408 38.2749 45.128 38.7369C44.848 39.1943 44.5237 39.5279 44.155 39.7379C43.7863 39.9433 43.357 40.0459 42.867 40.0459C42.2743 40.0459 41.768 39.8826 41.348 39.5559C40.928 39.2246 40.6083 38.7813 40.389 38.2259C40.165 37.6706 40.053 37.0593 40.053 36.3919C40.053 35.6406 40.1627 34.9779 40.382 34.4039C40.5967 33.8299 40.9047 33.3329 41.306 32.9129L42.552 33.9979C42.2767 34.3246 42.0737 34.6769 41.943 35.0549C41.8077 35.4329 41.74 35.8179 41.74 36.2099C41.74 36.4993 41.7773 36.7536 41.852 36.9729C41.922 37.1923 42.027 37.3626 42.167 37.4839C42.307 37.6053 42.482 37.6659 42.692 37.6659C42.8973 37.6659 43.07 37.6076 43.21 37.4909C43.35 37.3743 43.483 37.1713 43.609 36.8819C43.7303 36.5926 43.8727 36.1913 44.036 35.6779C44.2227 35.0666 44.4467 34.5439 44.708 34.1099C44.9647 33.6713 45.289 33.3376 45.681 33.1089C46.073 32.8756 46.5677 32.7589 47.165 32.7589Z" fill="#14C685"/>
</svg>
